<svg viewBox="0 0 720 540" xmlns="http://www.w3.org/2000/svg" font-family="Plus Jakarta Sans, Poppins, sans-serif">
  <rect width="720" height="540" fill="#f2f2f2"/>
  <rect x="48" y="48" width="624" height="444" rx="2" fill="#ffffff" stroke="#e7e6ef"/>
  <circle cx="76" cy="78" r="5" fill="#e2e0ec"/><circle cx="94" cy="78" r="5" fill="#e2e0ec"/><circle cx="112" cy="78" r="5" fill="#e2e0ec"/>
  <rect x="80" y="120" width="44" height="44" rx="2" fill="#fe510022"/>
  <rect x="94" y="134" width="16" height="16" rx="2" fill="#fe5100"/>
  <text x="140" y="140" font-size="20" font-weight="700" fill="#0f1111">Bookings this month</text>
  <rect x="560" y="126" width="80" height="30" rx="2" fill="#f2f1f8"/>
  <circle cx="580" cy="141" r="4" fill="#4ab765"/>
  <text x="592" y="146" font-size="14" fill="#667085">Live</text>
  <text x="80" y="220" font-size="52" font-weight="800" fill="#0f1111">1,284</text>
  <text x="250" y="214" font-size="18" font-weight="700" fill="#fe5100">▲ 18%</text>
  <g>
    <rect x="80"  y="300" width="60" height="120" rx="2" fill="#f2f1f8"/>
    <rect x="160" y="270" width="60" height="150" rx="2" fill="#f2f1f8"/>
    <rect x="240" y="330" width="60" height="90"  rx="2" fill="#f2f1f8"/>
    <rect x="320" y="250" width="60" height="170" rx="2" fill="#f2f1f8"/>
    <rect x="400" y="290" width="60" height="130" rx="2" fill="#f2f1f8"/>
    <rect x="480" y="230" width="60" height="190" rx="2" fill="#fe5100"/>
    <rect x="560" y="280" width="60" height="140" rx="2" fill="#f2f1f8"/>
  </g>
</svg>
